<mxfile host="app.diagrams.net" modified="2023-08-15T01:40:26.379Z" agent="Mozilla/5.0 (X11; Ubuntu; Linux x86_64; rv:109.0) Gecko/20100101 Firefox/115.0" etag="4DOsDTOCuxjYoX7aE2rG" version="21.6.2" type="github">
  <diagram name="Page-1" id="n4zXgJt_IZYc9hZitleS">
    <mxGraphModel dx="3881" dy="2776" grid="1" gridSize="10" guides="1" tooltips="1" connect="1" arrows="1" fold="1" page="1" pageScale="1" pageWidth="850" pageHeight="1100" math="0" shadow="0">
      <root>
        <mxCell id="0" />
        <mxCell id="1" parent="0" />
        <mxCell id="wXpMjIvsHFn3zbwUYM4b-102" value="Api" style="shape=umlLifeline;perimeter=lifelinePerimeter;whiteSpace=wrap;html=1;container=1;dropTarget=0;collapsible=0;recursiveResize=0;outlineConnect=0;portConstraint=eastwest;newEdgeStyle={&quot;edgeStyle&quot;:&quot;elbowEdgeStyle&quot;,&quot;elbow&quot;:&quot;vertical&quot;,&quot;curved&quot;:0,&quot;rounded&quot;:0};" vertex="1" parent="1">
          <mxGeometry x="-50" y="510" width="100" height="570" as="geometry" />
        </mxCell>
        <mxCell id="wXpMjIvsHFn3zbwUYM4b-89" value="New Scan" style="shape=umlFrame;whiteSpace=wrap;html=1;pointerEvents=0;width=80;height=30;" vertex="1" parent="1">
          <mxGeometry x="-270" y="450" width="1270" height="650" as="geometry" />
        </mxCell>
        <mxCell id="wXpMjIvsHFn3zbwUYM4b-3" value="Actor" style="shape=umlActor;verticalLabelPosition=bottom;verticalAlign=top;html=1;outlineConnect=0;movable=1;resizable=1;rotatable=1;deletable=1;editable=1;locked=0;connectable=1;" vertex="1" parent="1">
          <mxGeometry x="-190" y="-10" width="30" height="60" as="geometry" />
        </mxCell>
        <mxCell id="wXpMjIvsHFn3zbwUYM4b-11" value="Is cryptographic key imported" style="shape=umlFrame;whiteSpace=wrap;html=1;pointerEvents=0;width=120;height=30;" vertex="1" parent="1">
          <mxGeometry x="95" y="100" width="660" height="120" as="geometry" />
        </mxCell>
        <mxCell id="wXpMjIvsHFn3zbwUYM4b-12" value="[cryptoKey == nil]" style="text;html=1;align=center;verticalAlign=middle;resizable=0;points=[];autosize=1;strokeColor=none;fillColor=none;" vertex="1" parent="1">
          <mxGeometry x="95" y="145" width="120" height="30" as="geometry" />
        </mxCell>
        <mxCell id="wXpMjIvsHFn3zbwUYM4b-17" value="Api" style="rounded=0;whiteSpace=wrap;html=1;movable=1;resizable=1;rotatable=1;deletable=1;editable=1;locked=0;connectable=1;" vertex="1" parent="1">
          <mxGeometry x="-40" width="80" height="40" as="geometry" />
        </mxCell>
        <mxCell id="wXpMjIvsHFn3zbwUYM4b-19" value="" style="endArrow=none;dashed=1;html=1;rounded=0;movable=1;resizable=1;rotatable=1;deletable=1;editable=1;locked=0;connectable=1;" edge="1" parent="1">
          <mxGeometry width="50" height="50" relative="1" as="geometry">
            <mxPoint y="400" as="sourcePoint" />
            <mxPoint y="40" as="targetPoint" />
          </mxGeometry>
        </mxCell>
        <mxCell id="wXpMjIvsHFn3zbwUYM4b-20" value="" style="endArrow=none;dashed=1;html=1;rounded=0;movable=1;resizable=1;rotatable=1;deletable=1;editable=1;locked=0;connectable=1;" edge="1" parent="1">
          <mxGeometry width="50" height="50" relative="1" as="geometry">
            <mxPoint x="-176" y="400" as="sourcePoint" />
            <mxPoint x="-175.59" y="40" as="targetPoint" />
          </mxGeometry>
        </mxCell>
        <mxCell id="wXpMjIvsHFn3zbwUYM4b-42" value="&lt;div&gt;201&lt;/div&gt;" style="edgeStyle=elbowEdgeStyle;rounded=0;orthogonalLoop=1;jettySize=auto;html=1;elbow=vertical;curved=0;" edge="1" parent="1" source="wXpMjIvsHFn3zbwUYM4b-21">
          <mxGeometry x="0.0303" y="-10" relative="1" as="geometry">
            <mxPoint x="-170" y="370" as="targetPoint" />
            <Array as="points">
              <mxPoint x="-90" y="370" />
            </Array>
            <mxPoint as="offset" />
          </mxGeometry>
        </mxCell>
        <mxCell id="wXpMjIvsHFn3zbwUYM4b-21" value="" style="html=1;points=[];perimeter=orthogonalPerimeter;outlineConnect=0;targetShapes=umlLifeline;portConstraint=eastwest;newEdgeStyle={&quot;edgeStyle&quot;:&quot;elbowEdgeStyle&quot;,&quot;elbow&quot;:&quot;vertical&quot;,&quot;curved&quot;:0,&quot;rounded&quot;:0};" vertex="1" parent="1">
          <mxGeometry x="-5" y="60" width="10" height="330" as="geometry" />
        </mxCell>
        <mxCell id="wXpMjIvsHFn3zbwUYM4b-22" value="Create Database" style="html=1;verticalAlign=bottom;endArrow=block;edgeStyle=elbowEdgeStyle;elbow=horizontal;curved=0;rounded=0;" edge="1" parent="1">
          <mxGeometry width="80" relative="1" as="geometry">
            <mxPoint x="-170" y="80" as="sourcePoint" />
            <mxPoint x="-5" y="80.584117647059" as="targetPoint" />
          </mxGeometry>
        </mxCell>
        <mxCell id="wXpMjIvsHFn3zbwUYM4b-23" value="Cryptography" style="shape=umlLifeline;perimeter=lifelinePerimeter;whiteSpace=wrap;html=1;container=1;dropTarget=0;collapsible=0;recursiveResize=0;outlineConnect=0;portConstraint=eastwest;newEdgeStyle={&quot;edgeStyle&quot;:&quot;elbowEdgeStyle&quot;,&quot;elbow&quot;:&quot;vertical&quot;,&quot;curved&quot;:0,&quot;rounded&quot;:0};" vertex="1" parent="1">
          <mxGeometry x="240" width="100" height="400" as="geometry" />
        </mxCell>
        <mxCell id="wXpMjIvsHFn3zbwUYM4b-24" value="" style="html=1;points=[];perimeter=orthogonalPerimeter;outlineConnect=0;targetShapes=umlLifeline;portConstraint=eastwest;newEdgeStyle={&quot;edgeStyle&quot;:&quot;elbowEdgeStyle&quot;,&quot;elbow&quot;:&quot;vertical&quot;,&quot;curved&quot;:0,&quot;rounded&quot;:0};" vertex="1" parent="wXpMjIvsHFn3zbwUYM4b-23">
          <mxGeometry x="45" y="60" width="10" height="260" as="geometry" />
        </mxCell>
        <mxCell id="wXpMjIvsHFn3zbwUYM4b-26" value="SecretsManager" style="shape=umlLifeline;perimeter=lifelinePerimeter;whiteSpace=wrap;html=1;container=1;dropTarget=0;collapsible=0;recursiveResize=0;outlineConnect=0;portConstraint=eastwest;newEdgeStyle={&quot;edgeStyle&quot;:&quot;elbowEdgeStyle&quot;,&quot;elbow&quot;:&quot;vertical&quot;,&quot;curved&quot;:0,&quot;rounded&quot;:0};" vertex="1" parent="1">
          <mxGeometry x="419" width="100" height="400" as="geometry" />
        </mxCell>
        <mxCell id="wXpMjIvsHFn3zbwUYM4b-27" value="" style="html=1;points=[];perimeter=orthogonalPerimeter;outlineConnect=0;targetShapes=umlLifeline;portConstraint=eastwest;newEdgeStyle={&quot;edgeStyle&quot;:&quot;elbowEdgeStyle&quot;,&quot;elbow&quot;:&quot;vertical&quot;,&quot;curved&quot;:0,&quot;rounded&quot;:0};" vertex="1" parent="wXpMjIvsHFn3zbwUYM4b-26">
          <mxGeometry x="45" y="100" width="10" height="70" as="geometry" />
        </mxCell>
        <mxCell id="wXpMjIvsHFn3zbwUYM4b-29" value="Cypher database password" style="html=1;verticalAlign=bottom;endArrow=block;edgeStyle=elbowEdgeStyle;elbow=vertical;curved=0;rounded=0;" edge="1" parent="1" source="wXpMjIvsHFn3zbwUYM4b-21" target="wXpMjIvsHFn3zbwUYM4b-23">
          <mxGeometry width="80" relative="1" as="geometry">
            <mxPoint x="30" y="90" as="sourcePoint" />
            <mxPoint x="190" y="90" as="targetPoint" />
            <Array as="points">
              <mxPoint x="140" y="90" />
            </Array>
          </mxGeometry>
        </mxCell>
        <mxCell id="wXpMjIvsHFn3zbwUYM4b-30" value="Get Symmetric Key" style="html=1;verticalAlign=bottom;endArrow=block;edgeStyle=elbowEdgeStyle;elbow=vertical;curved=0;rounded=0;" edge="1" parent="1" source="wXpMjIvsHFn3zbwUYM4b-24" target="wXpMjIvsHFn3zbwUYM4b-27">
          <mxGeometry width="80" relative="1" as="geometry">
            <mxPoint x="300" y="120" as="sourcePoint" />
            <mxPoint x="400" y="120" as="targetPoint" />
            <Array as="points">
              <mxPoint x="390" y="120" />
            </Array>
          </mxGeometry>
        </mxCell>
        <mxCell id="wXpMjIvsHFn3zbwUYM4b-31" value="" style="edgeStyle=elbowEdgeStyle;rounded=0;orthogonalLoop=1;jettySize=auto;html=1;elbow=vertical;curved=0;" edge="1" parent="1" source="wXpMjIvsHFn3zbwUYM4b-27" target="wXpMjIvsHFn3zbwUYM4b-23">
          <mxGeometry relative="1" as="geometry">
            <Array as="points">
              <mxPoint x="390" y="160" />
            </Array>
          </mxGeometry>
        </mxCell>
        <mxCell id="wXpMjIvsHFn3zbwUYM4b-32" value="&lt;div&gt;Database&lt;/div&gt;" style="shape=umlLifeline;perimeter=lifelinePerimeter;whiteSpace=wrap;html=1;container=1;dropTarget=0;collapsible=0;recursiveResize=0;outlineConnect=0;portConstraint=eastwest;newEdgeStyle={&quot;edgeStyle&quot;:&quot;elbowEdgeStyle&quot;,&quot;elbow&quot;:&quot;vertical&quot;,&quot;curved&quot;:0,&quot;rounded&quot;:0};" vertex="1" parent="1">
          <mxGeometry x="562" width="100" height="400" as="geometry" />
        </mxCell>
        <mxCell id="wXpMjIvsHFn3zbwUYM4b-33" value="" style="html=1;points=[];perimeter=orthogonalPerimeter;outlineConnect=0;targetShapes=umlLifeline;portConstraint=eastwest;newEdgeStyle={&quot;edgeStyle&quot;:&quot;elbowEdgeStyle&quot;,&quot;elbow&quot;:&quot;vertical&quot;,&quot;curved&quot;:0,&quot;rounded&quot;:0};" vertex="1" parent="wXpMjIvsHFn3zbwUYM4b-32">
          <mxGeometry x="45" y="320" width="10" height="40" as="geometry" />
        </mxCell>
        <mxCell id="wXpMjIvsHFn3zbwUYM4b-36" value="&lt;div&gt;Encrypt Database Password&lt;/div&gt;" style="html=1;align=left;spacingLeft=2;endArrow=block;rounded=0;edgeStyle=orthogonalEdgeStyle;curved=0;rounded=0;" edge="1" parent="1">
          <mxGeometry relative="1" as="geometry">
            <mxPoint x="290" y="230" as="sourcePoint" />
            <Array as="points">
              <mxPoint x="320" y="260" />
            </Array>
            <mxPoint x="295" y="260" as="targetPoint" />
          </mxGeometry>
        </mxCell>
        <mxCell id="wXpMjIvsHFn3zbwUYM4b-37" value="Save Database" style="html=1;verticalAlign=bottom;endArrow=block;edgeStyle=elbowEdgeStyle;elbow=vertical;curved=0;rounded=0;" edge="1" parent="1" source="wXpMjIvsHFn3zbwUYM4b-21" target="wXpMjIvsHFn3zbwUYM4b-33">
          <mxGeometry width="80" relative="1" as="geometry">
            <mxPoint x="300" y="300" as="sourcePoint" />
            <mxPoint x="380" y="300" as="targetPoint" />
            <Array as="points">
              <mxPoint x="100" y="340" />
            </Array>
          </mxGeometry>
        </mxCell>
        <mxCell id="wXpMjIvsHFn3zbwUYM4b-38" value="New Database" style="shape=umlFrame;whiteSpace=wrap;html=1;pointerEvents=0;width=80;height=30;" vertex="1" parent="1">
          <mxGeometry x="-270" y="-60" width="1270" height="510" as="geometry" />
        </mxCell>
        <mxCell id="wXpMjIvsHFn3zbwUYM4b-39" value="" style="edgeStyle=elbowEdgeStyle;rounded=0;orthogonalLoop=1;jettySize=auto;html=1;elbow=horizontal;curved=0;" edge="1" parent="1" source="wXpMjIvsHFn3zbwUYM4b-24" target="wXpMjIvsHFn3zbwUYM4b-21">
          <mxGeometry relative="1" as="geometry">
            <Array as="points">
              <mxPoint x="150" y="300" />
            </Array>
          </mxGeometry>
        </mxCell>
        <mxCell id="wXpMjIvsHFn3zbwUYM4b-40" value="Return encrypted database data" style="edgeLabel;html=1;align=center;verticalAlign=middle;resizable=0;points=[];" vertex="1" connectable="0" parent="wXpMjIvsHFn3zbwUYM4b-39">
          <mxGeometry x="0.4714" y="-1" relative="1" as="geometry">
            <mxPoint x="81" y="-9" as="offset" />
          </mxGeometry>
        </mxCell>
        <mxCell id="wXpMjIvsHFn3zbwUYM4b-41" value="" style="edgeStyle=elbowEdgeStyle;rounded=0;orthogonalLoop=1;jettySize=auto;html=1;elbow=vertical;curved=0;" edge="1" parent="1" source="wXpMjIvsHFn3zbwUYM4b-33" target="wXpMjIvsHFn3zbwUYM4b-21">
          <mxGeometry relative="1" as="geometry">
            <Array as="points">
              <mxPoint x="310" y="350" />
            </Array>
          </mxGeometry>
        </mxCell>
        <mxCell id="wXpMjIvsHFn3zbwUYM4b-70" value="Is cryptographic key imported" style="shape=umlFrame;whiteSpace=wrap;html=1;pointerEvents=0;width=120;height=30;" vertex="1" parent="1">
          <mxGeometry x="95" y="655" width="485" height="120" as="geometry" />
        </mxCell>
        <mxCell id="wXpMjIvsHFn3zbwUYM4b-71" value="[cryptoKey == nil]" style="text;html=1;align=center;verticalAlign=middle;resizable=0;points=[];autosize=1;strokeColor=none;fillColor=none;" vertex="1" parent="1">
          <mxGeometry x="95" y="706" width="120" height="30" as="geometry" />
        </mxCell>
        <mxCell id="wXpMjIvsHFn3zbwUYM4b-94" value="&lt;div&gt;Get Database connection data&lt;/div&gt;" style="edgeStyle=elbowEdgeStyle;rounded=0;orthogonalLoop=1;jettySize=auto;html=1;elbow=vertical;curved=0;" edge="1" parent="1" source="wXpMjIvsHFn3zbwUYM4b-76" target="wXpMjIvsHFn3zbwUYM4b-85">
          <mxGeometry x="0.2036" y="10" relative="1" as="geometry">
            <Array as="points">
              <mxPoint x="300" y="600" />
            </Array>
            <mxPoint as="offset" />
          </mxGeometry>
        </mxCell>
        <mxCell id="wXpMjIvsHFn3zbwUYM4b-104" style="edgeStyle=elbowEdgeStyle;rounded=0;orthogonalLoop=1;jettySize=auto;html=1;elbow=vertical;curved=0;" edge="1" parent="1" source="wXpMjIvsHFn3zbwUYM4b-76" target="wXpMjIvsHFn3zbwUYM4b-99">
          <mxGeometry relative="1" as="geometry">
            <Array as="points">
              <mxPoint x="390" y="900" />
            </Array>
          </mxGeometry>
        </mxCell>
        <mxCell id="wXpMjIvsHFn3zbwUYM4b-106" value="&lt;div&gt;NewScan(databaseString)&lt;br&gt;&lt;/div&gt;" style="edgeLabel;html=1;align=center;verticalAlign=middle;resizable=0;points=[];" vertex="1" connectable="0" parent="wXpMjIvsHFn3zbwUYM4b-104">
          <mxGeometry x="-0.0539" y="2" relative="1" as="geometry">
            <mxPoint x="25" y="-7" as="offset" />
          </mxGeometry>
        </mxCell>
        <mxCell id="wXpMjIvsHFn3zbwUYM4b-114" style="edgeStyle=elbowEdgeStyle;rounded=0;orthogonalLoop=1;jettySize=auto;html=1;elbow=vertical;curved=0;" edge="1" parent="1" source="wXpMjIvsHFn3zbwUYM4b-76" target="wXpMjIvsHFn3zbwUYM4b-113">
          <mxGeometry relative="1" as="geometry">
            <Array as="points">
              <mxPoint x="-90" y="960" />
            </Array>
          </mxGeometry>
        </mxCell>
        <mxCell id="wXpMjIvsHFn3zbwUYM4b-115" value="201" style="edgeLabel;html=1;align=center;verticalAlign=middle;resizable=0;points=[];" vertex="1" connectable="0" parent="wXpMjIvsHFn3zbwUYM4b-114">
          <mxGeometry x="0.3695" y="-3" relative="1" as="geometry">
            <mxPoint x="32" y="-7" as="offset" />
          </mxGeometry>
        </mxCell>
        <mxCell id="wXpMjIvsHFn3zbwUYM4b-76" value="" style="html=1;points=[];perimeter=orthogonalPerimeter;outlineConnect=0;targetShapes=umlLifeline;portConstraint=eastwest;newEdgeStyle={&quot;edgeStyle&quot;:&quot;elbowEdgeStyle&quot;,&quot;elbow&quot;:&quot;vertical&quot;,&quot;curved&quot;:0,&quot;rounded&quot;:0};" vertex="1" parent="1">
          <mxGeometry x="-5" y="570" width="10" height="420" as="geometry" />
        </mxCell>
        <mxCell id="wXpMjIvsHFn3zbwUYM4b-77" value="&lt;div&gt;New Scan&lt;/div&gt;" style="html=1;verticalAlign=bottom;endArrow=block;edgeStyle=elbowEdgeStyle;elbow=horizontal;curved=0;rounded=0;" edge="1" parent="1">
          <mxGeometry width="80" relative="1" as="geometry">
            <mxPoint x="-170" y="590" as="sourcePoint" />
            <mxPoint x="-5" y="590.584117647059" as="targetPoint" />
          </mxGeometry>
        </mxCell>
        <mxCell id="wXpMjIvsHFn3zbwUYM4b-78" value="Cryptography" style="shape=umlLifeline;perimeter=lifelinePerimeter;whiteSpace=wrap;html=1;container=1;dropTarget=0;collapsible=0;recursiveResize=0;outlineConnect=0;portConstraint=eastwest;newEdgeStyle={&quot;edgeStyle&quot;:&quot;elbowEdgeStyle&quot;,&quot;elbow&quot;:&quot;vertical&quot;,&quot;curved&quot;:0,&quot;rounded&quot;:0};" vertex="1" parent="1">
          <mxGeometry x="240" y="510" width="100" height="570" as="geometry" />
        </mxCell>
        <mxCell id="wXpMjIvsHFn3zbwUYM4b-79" value="" style="html=1;points=[];perimeter=orthogonalPerimeter;outlineConnect=0;targetShapes=umlLifeline;portConstraint=eastwest;newEdgeStyle={&quot;edgeStyle&quot;:&quot;elbowEdgeStyle&quot;,&quot;elbow&quot;:&quot;vertical&quot;,&quot;curved&quot;:0,&quot;rounded&quot;:0};" vertex="1" parent="wXpMjIvsHFn3zbwUYM4b-78">
          <mxGeometry x="45" y="111" width="10" height="260" as="geometry" />
        </mxCell>
        <mxCell id="wXpMjIvsHFn3zbwUYM4b-80" value="SecretsManager" style="shape=umlLifeline;perimeter=lifelinePerimeter;whiteSpace=wrap;html=1;container=1;dropTarget=0;collapsible=0;recursiveResize=0;outlineConnect=0;portConstraint=eastwest;newEdgeStyle={&quot;edgeStyle&quot;:&quot;elbowEdgeStyle&quot;,&quot;elbow&quot;:&quot;vertical&quot;,&quot;curved&quot;:0,&quot;rounded&quot;:0};" vertex="1" parent="1">
          <mxGeometry x="419" y="510" width="100" height="570" as="geometry" />
        </mxCell>
        <mxCell id="wXpMjIvsHFn3zbwUYM4b-81" value="" style="html=1;points=[];perimeter=orthogonalPerimeter;outlineConnect=0;targetShapes=umlLifeline;portConstraint=eastwest;newEdgeStyle={&quot;edgeStyle&quot;:&quot;elbowEdgeStyle&quot;,&quot;elbow&quot;:&quot;vertical&quot;,&quot;curved&quot;:0,&quot;rounded&quot;:0};" vertex="1" parent="wXpMjIvsHFn3zbwUYM4b-80">
          <mxGeometry x="45" y="151" width="10" height="70" as="geometry" />
        </mxCell>
        <mxCell id="wXpMjIvsHFn3zbwUYM4b-82" value="Decrypt Database data" style="html=1;verticalAlign=bottom;endArrow=block;edgeStyle=elbowEdgeStyle;elbow=vertical;curved=0;rounded=0;" edge="1" parent="1">
          <mxGeometry width="80" relative="1" as="geometry">
            <mxPoint x="5" y="643" as="sourcePoint" />
            <mxPoint x="289.49999999999955" y="643" as="targetPoint" />
            <Array as="points">
              <mxPoint x="140" y="643" />
            </Array>
          </mxGeometry>
        </mxCell>
        <mxCell id="wXpMjIvsHFn3zbwUYM4b-83" value="Get Symmetric Key" style="html=1;verticalAlign=bottom;endArrow=block;edgeStyle=elbowEdgeStyle;elbow=vertical;curved=0;rounded=0;" edge="1" parent="1" source="wXpMjIvsHFn3zbwUYM4b-79" target="wXpMjIvsHFn3zbwUYM4b-81">
          <mxGeometry width="80" relative="1" as="geometry">
            <mxPoint x="300" y="681" as="sourcePoint" />
            <mxPoint x="400" y="681" as="targetPoint" />
            <Array as="points">
              <mxPoint x="390" y="681" />
            </Array>
          </mxGeometry>
        </mxCell>
        <mxCell id="wXpMjIvsHFn3zbwUYM4b-84" value="" style="edgeStyle=elbowEdgeStyle;rounded=0;orthogonalLoop=1;jettySize=auto;html=1;elbow=vertical;curved=0;" edge="1" parent="1" source="wXpMjIvsHFn3zbwUYM4b-81">
          <mxGeometry relative="1" as="geometry">
            <Array as="points">
              <mxPoint x="390" y="721" />
            </Array>
            <mxPoint x="289.25" y="721" as="targetPoint" />
          </mxGeometry>
        </mxCell>
        <mxCell id="wXpMjIvsHFn3zbwUYM4b-85" value="&lt;div&gt;Database&lt;/div&gt;" style="shape=umlLifeline;perimeter=lifelinePerimeter;whiteSpace=wrap;html=1;container=1;dropTarget=0;collapsible=0;recursiveResize=0;outlineConnect=0;portConstraint=eastwest;newEdgeStyle={&quot;edgeStyle&quot;:&quot;elbowEdgeStyle&quot;,&quot;elbow&quot;:&quot;vertical&quot;,&quot;curved&quot;:0,&quot;rounded&quot;:0};" vertex="1" parent="1">
          <mxGeometry x="562" y="510" width="100" height="570" as="geometry" />
        </mxCell>
        <mxCell id="wXpMjIvsHFn3zbwUYM4b-86" value="" style="html=1;points=[];perimeter=orthogonalPerimeter;outlineConnect=0;targetShapes=umlLifeline;portConstraint=eastwest;newEdgeStyle={&quot;edgeStyle&quot;:&quot;elbowEdgeStyle&quot;,&quot;elbow&quot;:&quot;vertical&quot;,&quot;curved&quot;:0,&quot;rounded&quot;:0};" vertex="1" parent="wXpMjIvsHFn3zbwUYM4b-85">
          <mxGeometry x="45" y="80" width="10" height="40" as="geometry" />
        </mxCell>
        <mxCell id="wXpMjIvsHFn3zbwUYM4b-87" value="&lt;div&gt;Decrypt Database Password&lt;/div&gt;" style="html=1;align=left;spacingLeft=2;endArrow=block;rounded=0;edgeStyle=orthogonalEdgeStyle;curved=0;rounded=0;" edge="1" parent="1">
          <mxGeometry relative="1" as="geometry">
            <mxPoint x="290" y="791" as="sourcePoint" />
            <Array as="points">
              <mxPoint x="320" y="821" />
            </Array>
            <mxPoint x="295" y="821" as="targetPoint" />
          </mxGeometry>
        </mxCell>
        <mxCell id="wXpMjIvsHFn3zbwUYM4b-93" style="edgeStyle=elbowEdgeStyle;rounded=0;orthogonalLoop=1;jettySize=auto;html=1;elbow=vertical;curved=0;" edge="1" parent="1" source="wXpMjIvsHFn3zbwUYM4b-79">
          <mxGeometry relative="1" as="geometry">
            <mxPoint x="5" y="851" as="targetPoint" />
            <Array as="points">
              <mxPoint x="150" y="851" />
            </Array>
          </mxGeometry>
        </mxCell>
        <mxCell id="wXpMjIvsHFn3zbwUYM4b-96" style="edgeStyle=elbowEdgeStyle;rounded=0;orthogonalLoop=1;jettySize=auto;html=1;elbow=vertical;curved=0;" edge="1" parent="1" source="wXpMjIvsHFn3zbwUYM4b-86" target="wXpMjIvsHFn3zbwUYM4b-76">
          <mxGeometry relative="1" as="geometry" />
        </mxCell>
        <mxCell id="wXpMjIvsHFn3zbwUYM4b-98" value="Scanner" style="shape=umlLifeline;perimeter=lifelinePerimeter;whiteSpace=wrap;html=1;container=1;dropTarget=0;collapsible=0;recursiveResize=0;outlineConnect=0;portConstraint=eastwest;newEdgeStyle={&quot;edgeStyle&quot;:&quot;elbowEdgeStyle&quot;,&quot;elbow&quot;:&quot;vertical&quot;,&quot;curved&quot;:0,&quot;rounded&quot;:0};" vertex="1" parent="1">
          <mxGeometry x="720" y="510" width="100" height="570" as="geometry" />
        </mxCell>
        <mxCell id="wXpMjIvsHFn3zbwUYM4b-99" value="" style="html=1;points=[];perimeter=orthogonalPerimeter;outlineConnect=0;targetShapes=umlLifeline;portConstraint=eastwest;newEdgeStyle={&quot;edgeStyle&quot;:&quot;elbowEdgeStyle&quot;,&quot;elbow&quot;:&quot;vertical&quot;,&quot;curved&quot;:0,&quot;rounded&quot;:0};" vertex="1" parent="wXpMjIvsHFn3zbwUYM4b-98">
          <mxGeometry x="45" y="371" width="10" height="59" as="geometry" />
        </mxCell>
        <mxCell id="wXpMjIvsHFn3zbwUYM4b-107" style="edgeStyle=elbowEdgeStyle;rounded=0;orthogonalLoop=1;jettySize=auto;html=1;elbow=vertical;curved=0;" edge="1" parent="1" source="wXpMjIvsHFn3zbwUYM4b-99" target="wXpMjIvsHFn3zbwUYM4b-76">
          <mxGeometry relative="1" as="geometry">
            <Array as="points">
              <mxPoint x="390" y="930" />
            </Array>
          </mxGeometry>
        </mxCell>
        <mxCell id="wXpMjIvsHFn3zbwUYM4b-113" value="" style="shape=umlLifeline;perimeter=lifelinePerimeter;whiteSpace=wrap;html=1;container=1;dropTarget=0;collapsible=0;recursiveResize=0;outlineConnect=0;portConstraint=eastwest;newEdgeStyle={&quot;edgeStyle&quot;:&quot;elbowEdgeStyle&quot;,&quot;elbow&quot;:&quot;vertical&quot;,&quot;curved&quot;:0,&quot;rounded&quot;:0};participant=umlActor;" vertex="1" parent="1">
          <mxGeometry x="-185" y="510" width="20" height="570" as="geometry" />
        </mxCell>
        <mxCell id="wXpMjIvsHFn3zbwUYM4b-116" value="Api" style="shape=umlLifeline;perimeter=lifelinePerimeter;whiteSpace=wrap;html=1;container=1;dropTarget=0;collapsible=0;recursiveResize=0;outlineConnect=0;portConstraint=eastwest;newEdgeStyle={&quot;edgeStyle&quot;:&quot;elbowEdgeStyle&quot;,&quot;elbow&quot;:&quot;vertical&quot;,&quot;curved&quot;:0,&quot;rounded&quot;:0};" vertex="1" parent="1">
          <mxGeometry x="170.5" y="1160" width="100" height="170" as="geometry" />
        </mxCell>
        <mxCell id="wXpMjIvsHFn3zbwUYM4b-117" value="Get Scan" style="shape=umlFrame;whiteSpace=wrap;html=1;pointerEvents=0;width=80;height=30;" vertex="1" parent="1">
          <mxGeometry x="-270" y="1100" width="1270" height="320" as="geometry" />
        </mxCell>
        <mxCell id="wXpMjIvsHFn3zbwUYM4b-120" value="&lt;div&gt;Get Scan result&lt;/div&gt;" style="edgeStyle=elbowEdgeStyle;rounded=0;orthogonalLoop=1;jettySize=auto;html=1;elbow=vertical;curved=0;" edge="1" parent="1" source="wXpMjIvsHFn3zbwUYM4b-126" target="wXpMjIvsHFn3zbwUYM4b-135">
          <mxGeometry x="0.2036" y="10" relative="1" as="geometry">
            <Array as="points">
              <mxPoint x="400.5" y="1260" />
            </Array>
            <mxPoint as="offset" />
          </mxGeometry>
        </mxCell>
        <mxCell id="wXpMjIvsHFn3zbwUYM4b-124" style="edgeStyle=elbowEdgeStyle;rounded=0;orthogonalLoop=1;jettySize=auto;html=1;elbow=vertical;curved=0;" edge="1" parent="1" source="wXpMjIvsHFn3zbwUYM4b-126" target="wXpMjIvsHFn3zbwUYM4b-146">
          <mxGeometry relative="1" as="geometry">
            <Array as="points">
              <mxPoint x="-130" y="1280" />
            </Array>
          </mxGeometry>
        </mxCell>
        <mxCell id="wXpMjIvsHFn3zbwUYM4b-125" value="Data" style="edgeLabel;html=1;align=center;verticalAlign=middle;resizable=0;points=[];" vertex="1" connectable="0" parent="wXpMjIvsHFn3zbwUYM4b-124">
          <mxGeometry x="0.3695" y="-3" relative="1" as="geometry">
            <mxPoint x="72" y="-7" as="offset" />
          </mxGeometry>
        </mxCell>
        <mxCell id="wXpMjIvsHFn3zbwUYM4b-126" value="" style="html=1;points=[];perimeter=orthogonalPerimeter;outlineConnect=0;targetShapes=umlLifeline;portConstraint=eastwest;newEdgeStyle={&quot;edgeStyle&quot;:&quot;elbowEdgeStyle&quot;,&quot;elbow&quot;:&quot;vertical&quot;,&quot;curved&quot;:0,&quot;rounded&quot;:0};" vertex="1" parent="1">
          <mxGeometry x="215.5" y="1220" width="10" height="80" as="geometry" />
        </mxCell>
        <mxCell id="wXpMjIvsHFn3zbwUYM4b-127" value="&lt;div&gt;Get Scan&lt;/div&gt;" style="html=1;verticalAlign=bottom;endArrow=block;edgeStyle=elbowEdgeStyle;elbow=vertical;curved=0;rounded=0;" edge="1" parent="1" target="wXpMjIvsHFn3zbwUYM4b-126">
          <mxGeometry width="80" relative="1" as="geometry">
            <mxPoint x="-170" y="1240" as="sourcePoint" />
            <mxPoint x="-5" y="1240.584117647059" as="targetPoint" />
          </mxGeometry>
        </mxCell>
        <mxCell id="wXpMjIvsHFn3zbwUYM4b-135" value="&lt;div&gt;Database&lt;/div&gt;" style="shape=umlLifeline;perimeter=lifelinePerimeter;whiteSpace=wrap;html=1;container=1;dropTarget=0;collapsible=0;recursiveResize=0;outlineConnect=0;portConstraint=eastwest;newEdgeStyle={&quot;edgeStyle&quot;:&quot;elbowEdgeStyle&quot;,&quot;elbow&quot;:&quot;vertical&quot;,&quot;curved&quot;:0,&quot;rounded&quot;:0};" vertex="1" parent="1">
          <mxGeometry x="490.5" y="1160" width="100" height="170" as="geometry" />
        </mxCell>
        <mxCell id="wXpMjIvsHFn3zbwUYM4b-136" value="" style="html=1;points=[];perimeter=orthogonalPerimeter;outlineConnect=0;targetShapes=umlLifeline;portConstraint=eastwest;newEdgeStyle={&quot;edgeStyle&quot;:&quot;elbowEdgeStyle&quot;,&quot;elbow&quot;:&quot;vertical&quot;,&quot;curved&quot;:0,&quot;rounded&quot;:0};" vertex="1" parent="wXpMjIvsHFn3zbwUYM4b-135">
          <mxGeometry x="45" y="80" width="10" height="40" as="geometry" />
        </mxCell>
        <mxCell id="wXpMjIvsHFn3zbwUYM4b-140" style="edgeStyle=elbowEdgeStyle;rounded=0;orthogonalLoop=1;jettySize=auto;html=1;elbow=vertical;curved=0;" edge="1" parent="1" source="wXpMjIvsHFn3zbwUYM4b-136" target="wXpMjIvsHFn3zbwUYM4b-126">
          <mxGeometry relative="1" as="geometry">
            <Array as="points">
              <mxPoint x="380.5" y="1270" />
            </Array>
          </mxGeometry>
        </mxCell>
        <mxCell id="wXpMjIvsHFn3zbwUYM4b-146" value="" style="shape=umlLifeline;perimeter=lifelinePerimeter;whiteSpace=wrap;html=1;container=1;dropTarget=0;collapsible=0;recursiveResize=0;outlineConnect=0;portConstraint=eastwest;newEdgeStyle={&quot;edgeStyle&quot;:&quot;elbowEdgeStyle&quot;,&quot;elbow&quot;:&quot;vertical&quot;,&quot;curved&quot;:0,&quot;rounded&quot;:0};participant=umlActor;" vertex="1" parent="1">
          <mxGeometry x="-185" y="1160" width="20" height="160" as="geometry" />
        </mxCell>
        <mxCell id="wXpMjIvsHFn3zbwUYM4b-147" value="SQS" style="shape=umlLifeline;perimeter=lifelinePerimeter;whiteSpace=wrap;html=1;container=1;dropTarget=0;collapsible=0;recursiveResize=0;outlineConnect=0;portConstraint=eastwest;newEdgeStyle={&quot;edgeStyle&quot;:&quot;elbowEdgeStyle&quot;,&quot;elbow&quot;:&quot;vertical&quot;,&quot;curved&quot;:0,&quot;rounded&quot;:0};" vertex="1" parent="1">
          <mxGeometry x="860" y="510" width="100" height="570" as="geometry" />
        </mxCell>
        <mxCell id="wXpMjIvsHFn3zbwUYM4b-148" value="" style="html=1;points=[];perimeter=orthogonalPerimeter;outlineConnect=0;targetShapes=umlLifeline;portConstraint=eastwest;newEdgeStyle={&quot;edgeStyle&quot;:&quot;elbowEdgeStyle&quot;,&quot;elbow&quot;:&quot;vertical&quot;,&quot;curved&quot;:0,&quot;rounded&quot;:0};" vertex="1" parent="wXpMjIvsHFn3zbwUYM4b-147">
          <mxGeometry x="45" y="371" width="10" height="59" as="geometry" />
        </mxCell>
        <mxCell id="wXpMjIvsHFn3zbwUYM4b-149" style="edgeStyle=elbowEdgeStyle;rounded=0;orthogonalLoop=1;jettySize=auto;html=1;elbow=vertical;curved=0;" edge="1" parent="1" source="wXpMjIvsHFn3zbwUYM4b-99" target="wXpMjIvsHFn3zbwUYM4b-147">
          <mxGeometry relative="1" as="geometry" />
        </mxCell>
        <mxCell id="wXpMjIvsHFn3zbwUYM4b-150" value="Send to worker queue" style="edgeLabel;html=1;align=center;verticalAlign=middle;resizable=0;points=[];" vertex="1" connectable="0" parent="wXpMjIvsHFn3zbwUYM4b-149">
          <mxGeometry x="0.1693" y="4" relative="1" as="geometry">
            <mxPoint x="-14" y="-7" as="offset" />
          </mxGeometry>
        </mxCell>
        <mxCell id="wXpMjIvsHFn3zbwUYM4b-151" style="edgeStyle=elbowEdgeStyle;rounded=0;orthogonalLoop=1;jettySize=auto;html=1;elbow=vertical;curved=0;" edge="1" parent="1" source="wXpMjIvsHFn3zbwUYM4b-148" target="wXpMjIvsHFn3zbwUYM4b-98">
          <mxGeometry relative="1" as="geometry">
            <Array as="points">
              <mxPoint x="860" y="920" />
            </Array>
          </mxGeometry>
        </mxCell>
      </root>
    </mxGraphModel>
  </diagram>
</mxfile>
